<svg aria-hidden="true" style="position: absolute; width: 0; height: 0; overflow: hidden;" version="1.1" xmlns="http://www.w3.org/2000/svg" xmlns:xlink="http://www.w3.org/1999/xlink">
<defs>
<symbol id="icon-loupe" viewBox="0 0 36 28">
<path d="M15.975 5.025c-1.45-1.475-3.4-2.275-5.475-2.275s-4.025 0.8-5.475 2.275c-1.475 1.45-2.275 3.4-2.275 5.475s0.8 4.025 2.275 5.475c1.45 1.475 3.4 2.275 5.475 2.275s4.025-0.8 5.475-2.275c3.025-3.025 3.025-7.925 0-10.95zM15.625 15.625c-1.375 1.375-3.2 2.125-5.125 2.125s-3.75-0.75-5.125-2.125-2.125-3.2-2.125-5.125 0.75-3.75 2.125-5.125 3.2-2.125 5.125-2.125 3.75 0.75 5.125 2.125 2.125 3.2 2.125 5.125-0.75 3.75-2.125 5.125z"></path>
<path d="M31.25 29.175l-12.525-12.575c2.975-4 2.65-9.7-0.975-13.35-4-4-10.5-4-14.5 0s-4 10.5 0 14.5c1.925 1.925 4.5 3 7.25 3 2.225 0 4.35-0.7 6.1-2.025l12.55 12.55c0.15 0.125 0.325 0.2 0.5 0.2 0.2 0 0.375-0.075 0.525-0.2l1.050-1.050c0.325-0.3 0.325-0.75 0.025-1.050zM3.6 17.4c-3.8-3.8-3.8-9.975 0-13.8 3.8-3.8 9.975-3.8 13.8 0 1.825 1.85 2.85 4.3 2.85 6.9s-1.025 5.050-2.85 6.9-4.3 2.85-6.9 2.85-5.050-1.025-6.9-2.85zM30.9 29.875l-1.050 1.050c-0.1 0.1-0.275 0.1-0.35 0l-12.5-12.5c0.25-0.2 0.5-0.425 0.75-0.675s0.45-0.475 0.675-0.75l12.475 12.525c0.1 0.1 0.1 0.25 0 0.35z"></path>
</symbol>
<symbol id="icon-microphone" viewBox="0 0 32 32">
<path fill="#fff" style="fill: var(--color1, #fff)" d="M1.333 16c0-10.667 4-14.667 14.667-14.667s14.667 4 14.667 14.667-4 14.667-14.667 14.667-14.667-4-14.667-14.667z"></path>
<path fill="#4285f4" style="fill: var(--color2, #4285f4)" d="M16 19.36c0.012 0 0.026 0 0.040 0 1.861 0 3.372-1.501 3.387-3.359v-7.841c-0.116-1.805-1.609-3.226-3.433-3.226s-3.317 1.42-3.433 3.216l-0.001 0.010v7.84c0.022 1.861 1.536 3.36 3.4 3.36 0.014 0 0.028-0 0.042-0l-0.002 0z"></path>
<path fill="#34a853" style="fill: var(--color3, #34a853)" d="M14.867 23.747h2.28v3.453h-2.28z"></path>
<path fill="#f4b400" style="fill: var(--color4, #f4b400)" d="M10.293 16h-2.293c0.002 2.175 0.9 4.139 2.345 5.545l0.002 0.002 1.653-1.547c-1.052-1.011-1.706-2.429-1.707-4v-0z"></path>
<path fill="#ea4335" style="fill: var(--color5, #ea4335)" d="M16 21.6c-0.003 0-0.007 0-0.011 0-1.549 0-2.955-0.61-3.991-1.602l0.002 0.002-1.653 1.533c1.444 1.426 3.429 2.307 5.62 2.307 0.012 0 0.023-0 0.035-0h-0.002c0.028 0 0.061 0.001 0.094 0.001 4.343 0 7.869-3.502 7.906-7.837l0-0.004h-2.293c-0.030 3.099-2.55 5.6-5.653 5.6-0.019 0-0.038-0-0.056-0l0.003 0z"></path>
</symbol>
<symbol id="icon-lens" viewBox="0 0 32 32">
<path fill="#fbc02d" style="fill: var(--color6, #fbc02d)" d="M20.117 9.301c1.408 0 2.581 1.152 2.581 2.581v2.069h2.581v-2.069c0-2.837-2.304-5.163-5.163-5.163h-2.069v2.581h2.069z"></path>
<path fill="#e53935" style="fill: var(--color7, #e53935)" d="M9.301 11.883c0-1.408 1.152-2.581 2.581-2.581h2.069v-2.581h-2.069c-2.837 0-5.163 2.304-5.163 5.163v2.069h2.581v-2.069z"></path>
<path fill="#1a73e8" style="fill: var(--color8, #1a73e8)" d="M11.883 22.699c-1.408 0-2.581-1.152-2.581-2.581v-2.069h-2.581v2.069c0 2.837 2.304 5.163 5.163 5.163h2.069v-2.581h-2.069z"></path>
<path fill="#1e88e5" style="fill: var(--color9, #1e88e5)" d="M19.605 16c0 1.991-1.614 3.605-3.605 3.605s-3.605-1.614-3.605-3.605c0-1.991 1.614-3.605 3.605-3.605s3.605 1.614 3.605 3.605z"></path>
<path fill="#4caf50" style="fill: var(--color10, #4caf50)" d="M24.256 22.187c0 1.143-0.926 2.069-2.069 2.069s-2.069-0.926-2.069-2.069c0-1.143 0.926-2.069 2.069-2.069s2.069 0.926 2.069 2.069z"></path>
</symbol>
<symbol id="icon-keyboard" viewBox="0 0 40 32">
<path fill="#000" style="fill: var(--color1, #000)" d="M30.117 23.483h-28.203c-0.488 0-0.885-0.395-0.885-0.885v-13.235c0-0.488 0.395-0.885 0.885-0.885h28.203c0.488 0 0.885 0.395 0.885 0.885v13.238c0 0.488-0.398 0.883-0.885 0.883z"></path>
<path fill="#424242" style="fill: var(--color2, #424242)" opacity="0.2" d="M30.117 9.23c0.075 0 0.135 0.060 0.135 0.135v13.235c0 0.075-0.060 0.135-0.135 0.135h-28.203c-0.075 0-0.135-0.060-0.135-0.135v-13.238c0-0.075 0.060-0.135 0.135-0.135h28.203zM30.117 8.48h-28.203c-0.488 0-0.885 0.395-0.885 0.885v13.235c0 0.488 0.395 0.885 0.885 0.885h28.203c0.488 0 0.885-0.395 0.885-0.885v-13.238c0-0.488-0.398-0.883-0.885-0.883v0z"></path>
<path fill="#f5f5f5" style="fill: var(--color3, #f5f5f5)" d="M4.588 12.498h-1.173c-0.228 0-0.413-0.185-0.413-0.412v-1.175c0-0.227 0.185-0.412 0.413-0.412h1.173c0.228 0 0.412 0.185 0.412 0.412v1.175c0 0.227-0.185 0.412-0.412 0.412z"></path>
<path fill="#f5f5f5" style="fill: var(--color3, #f5f5f5)" d="M7.447 12.498h-1.173c-0.228 0-0.412-0.185-0.412-0.412v-1.175c0-0.227 0.185-0.412 0.412-0.412h1.173c0.228 0 0.412 0.185 0.412 0.412v1.175c0 0.227-0.185 0.412-0.412 0.412z"></path>
<path fill="#f5f5f5" style="fill: var(--color3, #f5f5f5)" d="M10.307 12.498h-1.172c-0.227 0-0.412-0.185-0.412-0.412v-1.175c0-0.227 0.185-0.412 0.412-0.412h1.172c0.227 0 0.412 0.185 0.412 0.412v1.175c0 0.227-0.185 0.412-0.412 0.412z"></path>
<path fill="#f5f5f5" style="fill: var(--color3, #f5f5f5)" d="M13.168 12.498h-1.172c-0.227 0-0.412-0.185-0.412-0.412v-1.175c0-0.227 0.185-0.412 0.412-0.412h1.172c0.227 0 0.412 0.185 0.412 0.412v1.175c0 0.227-0.185 0.412-0.412 0.412z"></path>
<path fill="#f5f5f5" style="fill: var(--color3, #f5f5f5)" d="M16.027 12.498h-1.172c-0.227 0-0.412-0.185-0.412-0.412v-1.175c0-0.227 0.185-0.412 0.412-0.412h1.172c0.227 0 0.413 0.185 0.413 0.412v1.175c0 0.227-0.185 0.412-0.413 0.412z"></path>
<path fill="#f5f5f5" style="fill: var(--color3, #f5f5f5)" d="M18.887 12.498h-1.172c-0.227 0-0.413-0.185-0.413-0.412v-1.175c0-0.227 0.185-0.412 0.413-0.412h1.172c0.227 0 0.413 0.185 0.413 0.412v1.175c0 0.227-0.185 0.412-0.413 0.412z"></path>
<path fill="#f5f5f5" style="fill: var(--color3, #f5f5f5)" d="M21.747 12.498h-1.172c-0.227 0-0.413-0.185-0.413-0.412v-1.175c0-0.227 0.185-0.412 0.413-0.412h1.172c0.227 0 0.413 0.185 0.413 0.412v1.175c0 0.227-0.185 0.412-0.413 0.412z"></path>
<path fill="#f5f5f5" style="fill: var(--color3, #f5f5f5)" d="M24.608 12.498h-1.172c-0.227 0-0.413-0.185-0.413-0.412v-1.175c0-0.227 0.185-0.412 0.413-0.412h1.172c0.227 0 0.413 0.185 0.413 0.412v1.175c0 0.227-0.185 0.412-0.413 0.412z"></path>
<path fill="#f5f5f5" style="fill: var(--color3, #f5f5f5)" d="M28.6 12.498h-2.175c-0.227 0-0.413-0.185-0.413-0.412v-1.175c0-0.227 0.185-0.412 0.413-0.412h2.175c0.227 0 0.413 0.185 0.413 0.412v1.175c0 0.227-0.185 0.412-0.413 0.412z"></path>
<path fill="#f5f5f5" style="fill: var(--color3, #f5f5f5)" d="M27.425 15.495h1.172c0.227 0 0.413-0.185 0.413-0.412v-1.175c0-0.227-0.185-0.412-0.413-0.412h-1.172c-0.227 0-0.413 0.185-0.413 0.412v1.175c0 0.227 0.185 0.412 0.413 0.412z"></path>
<path fill="#f5f5f5" style="fill: var(--color3, #f5f5f5)" d="M24.565 15.495h1.172c0.227 0 0.413-0.185 0.413-0.412v-1.175c0-0.227-0.185-0.412-0.413-0.412h-1.172c-0.227 0-0.413 0.185-0.413 0.412v1.175c0 0.227 0.185 0.412 0.413 0.412z"></path>
<path fill="#f5f5f5" style="fill: var(--color3, #f5f5f5)" d="M21.705 15.495h1.172c0.227 0 0.413-0.185 0.413-0.412v-1.175c0-0.227-0.185-0.412-0.413-0.412h-1.172c-0.227 0-0.413 0.185-0.413 0.412v1.175c0 0.227 0.185 0.412 0.413 0.412z"></path>
<path fill="#f5f5f5" style="fill: var(--color3, #f5f5f5)" d="M18.845 15.495h1.172c0.227 0 0.413-0.185 0.413-0.412v-1.175c0-0.227-0.185-0.412-0.413-0.412h-1.172c-0.227 0-0.413 0.185-0.413 0.412v1.175c0 0.227 0.185 0.412 0.413 0.412z"></path>
<path fill="#f5f5f5" style="fill: var(--color3, #f5f5f5)" d="M15.985 15.495h1.172c0.227 0 0.413-0.185 0.413-0.412v-1.175c0-0.227-0.185-0.412-0.413-0.412h-1.172c-0.227 0-0.412 0.185-0.412 0.412v1.175c0 0.227 0.185 0.412 0.412 0.412z"></path>
<path fill="#f5f5f5" style="fill: var(--color3, #f5f5f5)" d="M13.125 15.495h1.172c0.227 0 0.412-0.185 0.412-0.412v-1.175c0-0.227-0.185-0.412-0.412-0.412h-1.172c-0.227 0-0.412 0.185-0.412 0.412v1.175c0 0.227 0.185 0.412 0.412 0.412z"></path>
<path fill="#f5f5f5" style="fill: var(--color3, #f5f5f5)" d="M10.265 15.495h1.172c0.227 0 0.412-0.185 0.412-0.412v-1.175c0-0.227-0.185-0.412-0.412-0.412h-1.172c-0.227 0-0.412 0.185-0.412 0.412v1.175c0 0.227 0.185 0.412 0.412 0.412z"></path>
<path fill="#f5f5f5" style="fill: var(--color3, #f5f5f5)" d="M7.405 15.495h1.173c0.227 0 0.412-0.185 0.412-0.412v-1.175c0-0.227-0.185-0.412-0.412-0.412h-1.173c-0.228 0-0.412 0.185-0.412 0.412v1.175c0 0.227 0.185 0.412 0.412 0.412z"></path>
<path fill="#f5f5f5" style="fill: var(--color3, #f5f5f5)" d="M3.413 15.495h2.175c0.228 0 0.412-0.185 0.412-0.412v-1.175c0-0.227-0.185-0.412-0.412-0.412h-2.175c-0.228 0-0.413 0.185-0.413 0.412v1.175c0 0.227 0.185 0.412 0.413 0.412z"></path>
<path fill="#f5f5f5" style="fill: var(--color3, #f5f5f5)" d="M20.43 18.492h1.185c0.225 0 0.407-0.183 0.407-0.407v-1.185c0-0.225-0.183-0.407-0.407-0.407h-1.185c-0.225 0-0.407 0.183-0.407 0.407v1.185c0 0.225 0.183 0.407 0.407 0.407z"></path>
<path fill="#f5f5f5" style="fill: var(--color3, #f5f5f5)" d="M17.427 18.492h1.185c0.225 0 0.407-0.183 0.407-0.407v-1.185c0-0.225-0.183-0.407-0.407-0.407h-1.185c-0.225 0-0.407 0.183-0.407 0.407v1.185c0 0.225 0.183 0.407 0.407 0.407z"></path>
<path fill="#f5f5f5" style="fill: var(--color3, #f5f5f5)" d="M14.422 18.492h1.185c0.225 0 0.408-0.183 0.408-0.407v-1.185c0-0.225-0.182-0.407-0.408-0.407h-1.185c-0.225 0-0.408 0.183-0.408 0.407v1.185c0 0.225 0.182 0.407 0.408 0.407z"></path>
<path fill="#f5f5f5" style="fill: var(--color3, #f5f5f5)" d="M11.42 18.492h1.185c0.225 0 0.408-0.183 0.408-0.407v-1.185c0-0.225-0.182-0.407-0.408-0.407h-1.185c-0.225 0-0.408 0.183-0.408 0.407v1.185c0 0.225 0.182 0.407 0.408 0.407z"></path>
<path fill="#f5f5f5" style="fill: var(--color3, #f5f5f5)" d="M8.415 18.492h1.185c0.225 0 0.408-0.183 0.408-0.407v-1.185c0-0.225-0.182-0.407-0.408-0.407h-1.185c-0.225 0-0.408 0.183-0.408 0.407v1.185c0 0.225 0.182 0.407 0.408 0.407z"></path>
<path fill="#f5f5f5" style="fill: var(--color3, #f5f5f5)" d="M3.413 18.492h3.163c0.228 0 0.412-0.185 0.412-0.413v-1.175c0-0.227-0.185-0.413-0.412-0.413h-3.163c-0.228 0-0.413 0.185-0.413 0.413v1.175c0 0.23 0.185 0.413 0.413 0.413z"></path>
<path fill="#f5f5f5" style="fill: var(--color3, #f5f5f5)" d="M23.433 18.535h5.16c0.227 0 0.413-0.185 0.413-0.413v-1.258c0-0.227-0.185-0.413-0.413-0.413h-5.16c-0.227 0-0.413 0.185-0.413 0.413v1.258c0 0.227 0.185 0.413 0.413 0.413z"></path>
<path fill="#f5f5f5" style="fill: var(--color3, #f5f5f5)" d="M27.425 21.492h1.175c0.227 0 0.413-0.185 0.413-0.413v-1.175c0-0.227-0.185-0.413-0.413-0.413h-1.175c-0.227 0-0.413 0.185-0.413 0.413v1.175c0 0.227 0.185 0.413 0.413 0.413z"></path>
<path fill="#f5f5f5" style="fill: var(--color3, #f5f5f5)" d="M24.315 21.492h1.175c0.227 0 0.413-0.185 0.413-0.413v-1.175c0-0.227-0.185-0.413-0.413-0.413h-1.175c-0.227 0-0.413 0.185-0.413 0.413v1.175c0 0.227 0.185 0.413 0.413 0.413z"></path>
<path fill="#f5f5f5" style="fill: var(--color3, #f5f5f5)" d="M9.633 21.492h12.748c0.227 0 0.413-0.185 0.413-0.413v-1.175c0-0.227-0.185-0.413-0.413-0.413h-12.748c-0.227 0-0.412 0.185-0.412 0.413v1.175c0 0.227 0.185 0.413 0.412 0.413z"></path>
<path fill="#f5f5f5" style="fill: var(--color3, #f5f5f5)" d="M6.522 21.492h1.175c0.228 0 0.412-0.185 0.412-0.413v-1.175c0-0.227-0.185-0.413-0.412-0.413h-1.175c-0.228 0-0.412 0.185-0.412 0.413v1.175c0 0.227 0.185 0.413 0.412 0.413z"></path>
<path fill="#f5f5f5" style="fill: var(--color3, #f5f5f5)" d="M3.413 21.492h1.175c0.228 0 0.412-0.185 0.412-0.413v-1.175c0-0.227-0.185-0.413-0.412-0.413h-1.175c-0.228 0-0.413 0.185-0.413 0.413v1.175c0 0.227 0.185 0.413 0.413 0.413z"></path>
</symbol>
</defs>
</svg>
